<svg width="796" height="578" viewBox="0 0 796 578" fill="none" xmlns="http://www.w3.org/2000/svg">
<path fill-rule="evenodd" clip-rule="evenodd" d="M372.473 0.455583C458.188 -4.97619 529.356 39.3193 600.012 71.68C672.223 104.752 757.78 134.433 785.089 189.433C812.409 244.457 784.925 306.07 741.365 356.371C702.804 400.898 618.872 413.846 561.016 448.178C492.52 488.825 462.696 562.561 372.473 575.278C280.279 588.273 184.251 552.739 114.351 511.136C48.4738 471.928 18.6563 413.862 4.38164 356.2C-8.2747 305.074 7.47689 253.819 38.8915 206.316C67.8816 162.479 121.706 131.346 174.718 98.6309C236.454 60.5324 288.19 5.79663 372.473 0.455583Z" fill="#F9DED4"/>
</svg>
