<svg width="375" height="216" viewBox="0 0 375 216" fill="none" xmlns="http://www.w3.org/2000/svg"><g clip-path="url(#clip0)"><path fill="#fff" d="M0 0h375v216H0z"/><g clip-path="url(#clip1)"><path d="M83.5924 111.853c-.4898.401-1.0911.702-1.8037.902-.6903.201-1.4251.301-2.2045.301-1.9596 0-3.4738-.512-4.5426-1.537-1.0689-1.024-1.6033-2.516-1.6033-4.476v-8.5839h-2.9394v-3.3402h2.9394v-4.075h4.1752v4.075H82.39v3.3402h-4.7765v8.4839c0 .869.2116 1.537.6346 2.004.4231.446 1.0355.668 1.8371.668.9353 0 1.7147-.245 2.3382-.735l1.169 2.973zM85.7991 101.799h9.1855v3.474h-9.1855v-3.474zM106.713 113.156c-1.804 0-3.552-.256-5.245-.768-1.6696-.512-2.9946-1.192-3.9744-2.038l1.5031-3.373c.9576.757 2.1263 1.38 3.5073 1.87 1.403.468 2.806.702 4.209.702 1.736 0 3.028-.279 3.874-.836.869-.556 1.303-1.291 1.303-2.204 0-.668-.245-1.214-.735-1.637-.468-.445-1.069-.79-1.804-1.035-.735-.245-1.737-.523-3.006-.835-1.781-.423-3.229-.846-4.342-1.27-1.091-.423-2.0376-1.08-2.8393-1.9702-.7793-.913-1.169-2.1378-1.169-3.6742 0-1.2916.3451-2.4606 1.0354-3.5072.7126-1.0689 1.7699-1.9151 3.1729-2.5386 1.425-.6235 3.162-.9352 5.211-.9352 1.425 0 2.828.1781 4.209.5344 1.38.3563 2.572.8684 3.574 1.5365l-1.37 3.3736c-1.024-.6013-2.093-1.0578-3.206-1.3695-1.114-.3118-2.194-.4676-3.24-.4676-1.715 0-2.995.2895-3.842.8684-.824.579-1.235 1.3472-1.235 2.3047 0 .6681.233 1.2137.701 1.6367.49.4231 1.102.7572 1.837 1.0021.735.2449 1.737.5233 3.006.835 1.737.4009 3.162.8241 4.276 1.2691 1.113.423 2.059 1.08 2.839 1.971.801.891 1.202 2.093 1.202 3.607 0 1.292-.356 2.461-1.069 3.508-.69 1.046-1.748 1.881-3.173 2.505-1.425.623-3.162.935-5.21.935zM130.191 94.7849c2.249 0 4.053.6569 5.411 1.9707 1.358 1.3138 2.038 3.2624 2.038 5.8454v10.221h-4.176v-9.687c0-1.558-.367-2.727-1.102-3.5068-.735-.8017-1.781-1.2025-3.14-1.2025-1.536 0-2.75.4676-3.64 1.4029-.891.9134-1.337 2.2384-1.337 3.9744v9.019h-4.175V88.0377h4.175v9.0185c.691-.7348 1.537-1.2915 2.539-1.6701 1.024-.4008 2.16-.6012 3.407-.6012zM142.936 94.9853h4.175v17.8367h-4.175V94.9853zm2.104-2.9394c-.757 0-1.391-.2338-1.903-.7014-.513-.4899-.769-1.0911-.769-1.8037 0-.7126.256-1.3027.769-1.7703.512-.4899 1.146-.7349 1.903-.7349.758 0 1.392.2339 1.904.7015.513.4453.769 1.0132.769 1.7035 0 .7348-.256 1.3583-.769 1.8705-.49.4899-1.124.7348-1.904.7348zM156.566 97.5906c1.203-1.8705 3.318-2.8057 6.347-2.8057v3.9748c-.357-.0668-.68-.1002-.969-.1002-1.626 0-2.895.4788-3.808 1.4365-.913.935-1.369 2.293-1.369 4.075v8.651h-4.176V94.9853h3.975v2.6053zM177.829 111.853c-.49.401-1.091.702-1.804.902-.69.201-1.425.301-2.204.301-1.96 0-3.474-.512-4.543-1.537-1.069-1.024-1.603-2.516-1.603-4.476v-8.5839h-2.94v-3.3402h2.94v-4.075h4.175v4.075h4.776v3.3402h-4.776v8.4839c0 .869.211 1.537.635 2.004.423.446 1.035.668 1.837.668.935 0 1.714-.245 2.338-.735l1.169 2.973zM190.896 89.4406h10.221c2.494 0 4.709.4899 6.647 1.4697 1.937.9575 3.44 2.327 4.509 4.1084 1.069 1.7592 1.603 3.7967 1.603 6.1123 0 2.316-.534 4.365-1.603 6.146-1.069 1.759-2.572 3.129-4.509 4.109-1.938.957-4.153 1.436-6.647 1.436h-10.221V89.4406zm10.02 19.7074c1.715 0 3.218-.323 4.509-.969 1.314-.668 2.316-1.603 3.007-2.806.712-1.224 1.068-2.638 1.068-4.242 0-1.603-.356-3.0059-1.068-4.2084-.691-1.2247-1.693-2.16-3.007-2.8058-1.291-.668-2.794-1.002-4.509-1.002h-5.678v16.0332h5.678zM234.858 104.004c0 .289-.022.701-.067 1.236h-13.995c.245 1.313.88 2.36 1.904 3.139 1.046.758 2.338 1.136 3.875 1.136 1.959 0 3.574-.646 4.843-1.937l2.238 2.572c-.802.957-1.815 1.681-3.04 2.171-1.225.49-2.605.735-4.142.735-1.959 0-3.685-.39-5.177-1.169-1.492-.78-2.65-1.86-3.474-3.24-.801-1.403-1.202-2.984-1.202-4.743 0-1.737.389-3.296 1.169-4.6767.801-1.4028 1.904-2.494 3.307-3.2733 1.402-.7794 2.984-1.1691 4.743-1.1691 1.737 0 3.284.3897 4.643 1.1691 1.38.7571 2.449 1.8371 3.206 3.2399.78 1.3811 1.169 2.9841 1.169 4.8101zm-9.018-5.8789c-1.336 0-2.472.4008-3.407 1.2024-.913.7795-1.47 1.8265-1.67 3.1395h10.12c-.178-1.291-.723-2.338-1.636-3.1395-.913-.8016-2.049-1.2024-3.407-1.2024zM244.38 113.056c-1.447 0-2.861-.19-4.242-.568-1.381-.379-2.483-.857-3.307-1.436l1.604-3.174c.801.535 1.759.969 2.872 1.303 1.136.312 2.249.468 3.34.468 2.494 0 3.741-.657 3.741-1.971 0-.623-.323-1.058-.968-1.303-.624-.245-1.637-.478-3.04-.701-1.47-.223-2.672-.479-3.607-.768-.913-.29-1.715-.791-2.405-1.503-.668-.735-1.002-1.748-1.002-3.04 0-1.6924.701-3.0396 2.104-4.0416 1.425-1.0244 3.34-1.5365 5.745-1.5365 1.225 0 2.45.1447 3.674.4342 1.225.2672 2.227.6346 3.007 1.1023l-1.604 3.1732c-1.514-.8908-3.217-1.3361-5.11-1.3361-1.225 0-2.16.1893-2.806.5678-.624.3563-.935.8351-.935 1.4367 0 .668.334 1.146 1.002 1.436.69.267 1.748.523 3.173.768 1.425.223 2.594.479 3.507.768.913.29 1.693.78 2.338 1.47.668.69 1.002 1.67 1.002 2.939 0 1.671-.723 3.007-2.171 4.009-1.447 1.002-3.418 1.503-5.912 1.503zM256.059 94.9853h4.175v17.8367h-4.175V94.9853zm2.104-2.9394c-.757 0-1.391-.2338-1.904-.7014-.512-.4899-.768-1.0911-.768-1.8037 0-.7126.256-1.3027.768-1.7703.513-.4899 1.147-.7349 1.904-.7349.757 0 1.392.2339 1.904.7015.512.4453.768 1.0132.768 1.7035 0 .7348-.256 1.3583-.768 1.8705-.49.4899-1.124.7348-1.904.7348zM283.417 94.9853v15.1307c0 6.28-3.206 9.42-9.619 9.42-1.715 0-3.341-.223-4.877-.668-1.537-.423-2.806-1.047-3.808-1.871l1.871-3.14c.779.646 1.759 1.158 2.939 1.537 1.202.401 2.416.601 3.641.601 1.959 0 3.396-.445 4.309-1.336.913-.891 1.369-2.249 1.369-4.075v-.935c-.713.779-1.581 1.369-2.605 1.77-1.025.401-2.149.601-3.374.601-1.692 0-3.229-.356-4.609-1.069-1.359-.734-2.439-1.759-3.24-3.073-.78-1.313-1.169-2.816-1.169-4.509 0-1.692.389-3.184 1.169-4.4757.801-1.3138 1.881-2.327 3.24-3.0396 1.38-.7125 2.917-1.0688 4.609-1.0688 1.292 0 2.461.2115 3.507.6346 1.069.4231 1.96 1.0689 2.672 1.9373v-2.3715h3.975zm-9.519 13.4947c1.581 0 2.872-.468 3.874-1.403 1.025-.958 1.537-2.194 1.537-3.708 0-1.492-.512-2.705-1.537-3.6406-1.002-.9353-2.293-1.4029-3.874-1.4029-1.604 0-2.917.4676-3.942 1.4029-1.002.9356-1.503 2.1486-1.503 3.6406 0 1.514.501 2.75 1.503 3.708 1.025.935 2.338 1.403 3.942 1.403zM299.027 94.7849c2.249 0 4.053.6569 5.411 1.9707 1.359 1.3138 2.038 3.2624 2.038 5.8454v10.221h-4.175v-9.687c0-1.558-.368-2.727-1.103-3.5068-.735-.8017-1.781-1.2025-3.139-1.2025-1.537 0-2.751.4676-3.641 1.4029-.891.9134-1.336 2.2384-1.336 3.9744v9.019h-4.176V94.9853h3.975V97.29c.691-.8239 1.559-1.4474 2.606-1.8705 1.046-.4231 2.226-.6346 3.54-.6346z" fill="#333"/><path d="M240.371 131.034c-3.679-1.812-5.335 6.795-5.703 11.325-.188 1.776-7.543 3.857-12.081 8.02-4.538 4.163-2.085 9.427-2.759 18.916-.54 7.591-3.659 6.102-5.152 4.408-.286-1.633-2.44-3.49-8.769 2.142-6.329 5.633-3.087 10.632-.675 12.428 5.213 1.142 17.392 2.595 24.407-.735 8.77-4.163 6.194-18.61 5.826-23.752-.294-4.114 2.699-6.041 4.232-6.49 3.904-1.734 11.087-7.505 8.585-16.712-3.127-11.509-3.311-7.285-7.911-9.55z" fill="#F9DED4"/><path d="M10.9469 96.5148c3.5396-.1122.7838-7.6948-1.03659-11.4721-.68083-1.4991 3.76189-6.2824 5.17479-11.5349 1.4129-5.2525-2.819-8.4204-6.70258-16.2914-3.10683-6.2968-.12755-6.4293 1.75048-5.7084.9636 1.1836 3.4036 1.754 5.454-5.4325 2.0505-7.1865-2.6387-9.8076-5.2397-10.2199-4.35701 1.2976-13.97547 5.3023-17.59283 10.9402-4.52167 7.0474 4.03821 17.5035 6.681752 21.4579 2.114838 3.1636.805161 5.9728-.114029 6.982C-2.74582 78.2783-5.36 85.9382.727429 92.2367 8.33671 100.11 6.52244 96.6552 10.9469 96.5148z" fill="#FFE090"/><path d="M366.931 65.7625c-.397 1.8377 1.693 2.5524 2.788 2.68 1.426-.2425 4.85-.827 7.141-1.2251 2.292-.3982 4.036.1659 4.621.4977.611 1.1358 1.344 3.507-.611 3.9052-1.955.3982-6.11 2.412-7.943 3.3692-.497.6636-1.375 2.4044-.917 4.0584.459 1.6539 2.941 2.3227 4.125 2.4503 1.744-.2425 5.529-.8117 6.721-1.1486 1.191-.3369 2.279.7274 2.673 1.3017.853 2.8587 2.521 8.8901 2.368 10.1459-.153 1.2558-.904 1.7995-1.26 1.9143-.51.1276-3.361.9802-10.693 3.3692-1.528.1532-1.757 1.7995-1.68 3.7523.061 1.562 2.902 2.616 4.315 2.948 2.724-.626 8.554-1.976 10.082-2.374 1.527-.398 2.164.728 2.291 1.34l1.184 5.934c1.005 1.289 3.528 3.737 5.575 3.217 2.047-.521 3.195-2.923 3.514-4.059-1.541-8.5121-5.293-27.3746-7.982-34.7255-3.36-9.1888-4.391-8.691-7.256-12.5197-2.864-3.8286-10.96-1.9526-14.168-.4211-3.207 1.5314-4.391 3.2926-4.888 5.5898z" fill="#EFF6F9"/><path d="M73.777 156.053c-3.0264-3.022-28.9568-4.969-41.5437-5.565-15.0866-.986-13.6584 4.556-11.3756 8.414 2.2829 3.858 21.3901 1.256 27.382 3.663 5.9919 2.406 3.028 4.047 3.028 4.047s-4.7664 2.853-7.1442 4.297c-3.8024 5.502 2.2361 6.846 2.2361 6.846s15.375 3.56 23.0867 4.825c8.7962 1.175 23.9986 2.309 26.2596-1.766 2.5641-4.622-2.7905-5.565-7.0815-7.228-4.3322-1.679-17.9758-3.367-21.8434-3.897-3.0941-.424-1.3639-1.564-.112-2.081l6.6456-4.724c1.4152-1.017 3.4888-3.809.4624-6.831z" fill="#92C3BE"/><path d="M374.698 191.543c4.103.945 15.797-8.479 21.131-13.309 6.66-5.591.691-9.049-3.95-10.917-4.642-1.868-9.304 8.03-13.923 8.776-4.619.746-5.108-1.694-5.108-1.694s-.996-4.082-1.514-6.134c-3.956-5.617-7.552-4.074-7.552-4.074s-9.29 3.827-13.44 6.128c-4.471 2.821-11.319 8.352-8.18 12.28 3.561 4.454 6.505 2.904 9.754 2.326 3.281-.584 10.083-5.058 12.062-6.288 1.583-.984 2.047.574 2.081 1.476l2.12 6.238c.464 1.336 2.416 4.247 6.519 5.192z" fill="#FFE090"/><path fill-rule="evenodd" clip-rule="evenodd" d="M346.346 24.3614c-1.469-2.2637-4.527-2.9286-6.831-1.4851L319.828 35.212l1.439-4.5976c.804-2.5661-.662-5.2863-3.273-6.0759-2.612-.7896-5.38.6506-6.184 3.2166l-5.397 17.2352c-.61 1.9478.081 4.0626 1.731 5.2972 1.65 1.2346 3.909 1.3269 5.658.2312l31.033-19.4448c2.304-1.4435 2.981-4.4488 1.511-6.7125z" fill="#FF6B6B"/><path fill-rule="evenodd" clip-rule="evenodd" d="M129.898 26.3739c4.26-3.3387 7.444-8.05 8.936-11.1873 2.142-4.5064 7.532-6.42294 12.038-4.2807 4.506 2.1423 6.423 7.5321 4.281 12.0385-2.428 5.1079-7.21 12.244-14.108 17.651-7.06 5.5332-17.039 9.7167-28.859 6.7693-4.841-1.2073-7.787-6.1108-6.58-10.9522 1.208-4.8415 6.111-7.7875 10.953-6.5802 4.87 1.2145 9.241-.2459 13.339-3.4584z" fill="#EFF6F9"/></g></g><defs><clipPath id="clip0"><path fill="#fff" d="M0 0h375v216H0z"/></clipPath><clipPath id="clip1"><path fill="#fff" transform="translate(-33 8)" d="M0 0h442.693v199H0z"/></clipPath></defs></svg>