<svg width="941" height="423" viewBox="0 0 941 423" fill="none" xmlns="http://www.w3.org/2000/svg">
<g clip-path="url(#clip0)">
<path d="M247.832 220.753C246.791 221.605 245.513 222.244 243.998 222.67C242.531 223.096 240.969 223.309 239.312 223.309C235.147 223.309 231.928 222.22 229.656 220.043C227.384 217.866 226.248 214.694 226.248 210.529V192.282H220V185.182H226.248V176.52H235.123V185.182H245.276V192.282H235.123V210.316C235.123 212.162 235.573 213.582 236.472 214.576C237.371 215.523 238.673 215.996 240.377 215.996C242.365 215.996 244.022 215.475 245.347 214.434L247.832 220.753Z" fill="#333333"/>
<path d="M252.522 199.382H272.047V206.766H252.522V199.382Z" fill="#333333"/>
<path d="M296.977 223.522C293.143 223.522 289.427 222.978 285.83 221.889C282.28 220.8 279.463 219.357 277.381 217.558L280.576 210.387C282.611 211.996 285.096 213.322 288.031 214.363C291.013 215.357 293.995 215.854 296.977 215.854C300.669 215.854 303.414 215.262 305.213 214.079C307.059 212.896 307.982 211.334 307.982 209.393C307.982 207.973 307.461 206.813 306.42 205.914C305.426 204.967 304.148 204.234 302.586 203.713C301.024 203.192 298.894 202.601 296.196 201.938C292.409 201.039 289.332 200.139 286.966 199.24C284.646 198.341 282.635 196.944 280.931 195.051C279.274 193.11 278.446 190.507 278.446 187.241C278.446 184.496 279.179 182.011 280.647 179.786C282.161 177.514 284.41 175.715 287.392 174.39C290.421 173.065 294.113 172.402 298.468 172.402C301.497 172.402 304.479 172.781 307.414 173.538C310.348 174.295 312.881 175.384 315.011 176.804L312.1 183.975C309.922 182.697 307.65 181.727 305.284 181.064C302.917 180.401 300.621 180.07 298.397 180.07C294.752 180.07 292.03 180.685 290.232 181.916C288.48 183.147 287.605 184.78 287.605 186.815C287.605 188.235 288.102 189.395 289.096 190.294C290.137 191.193 291.439 191.903 293.001 192.424C294.563 192.945 296.693 193.536 299.391 194.199C303.083 195.051 306.112 195.95 308.479 196.897C310.845 197.796 312.857 199.193 314.514 201.086C316.218 202.979 317.07 205.535 317.07 208.754C317.07 211.499 316.312 213.984 314.798 216.209C313.33 218.434 311.082 220.209 308.053 221.534C305.023 222.859 301.331 223.522 296.977 223.522Z" fill="#333333"/>
<path d="M346.883 184.472C351.664 184.472 355.498 185.868 358.385 188.661C361.272 191.454 362.716 195.595 362.716 201.086V222.812H353.841V202.222C353.841 198.909 353.06 196.424 351.498 194.767C349.936 193.063 347.711 192.211 344.824 192.211C341.558 192.211 338.978 193.205 337.085 195.193C335.192 197.134 334.245 199.95 334.245 203.642V222.812H325.37V170.13H334.245V189.3C335.712 187.738 337.511 186.555 339.641 185.75C341.818 184.898 344.232 184.472 346.883 184.472Z" fill="#333333"/>
<path d="M373.975 184.898H382.85V222.812H373.975V184.898ZM378.448 178.65C376.838 178.65 375.489 178.153 374.401 177.159C373.312 176.118 372.768 174.84 372.768 173.325C372.768 171.81 373.312 170.556 374.401 169.562C375.489 168.521 376.838 168 378.448 168C380.057 168 381.406 168.497 382.495 169.491C383.583 170.438 384.128 171.645 384.128 173.112C384.128 174.674 383.583 175.999 382.495 177.088C381.453 178.129 380.104 178.65 378.448 178.65Z" fill="#333333"/>
<path d="M402.947 190.436C405.503 186.46 410 184.472 416.437 184.472V192.921C415.68 192.779 414.993 192.708 414.378 192.708C410.923 192.708 408.225 193.726 406.284 195.761C404.343 197.749 403.373 200.636 403.373 204.423V222.812H394.498V184.898H402.947V190.436Z" fill="#333333"/>
<path d="M448.144 220.753C447.102 221.605 445.824 222.244 444.31 222.67C442.842 223.096 441.28 223.309 439.624 223.309C435.458 223.309 432.24 222.22 429.968 220.043C427.696 217.866 426.56 214.694 426.56 210.529V192.282H420.312V185.182H426.56V176.52H435.435V185.182H445.588V192.282H435.435V210.316C435.435 212.162 435.884 213.582 436.784 214.576C437.683 215.523 438.985 215.996 440.689 215.996C442.677 215.996 444.333 215.475 445.659 214.434L448.144 220.753Z" fill="#333333"/>
<path d="M475.918 173.112H497.644C502.946 173.112 507.655 174.153 511.773 176.236C515.891 178.271 519.086 181.182 521.358 184.969C523.63 188.708 524.766 193.039 524.766 197.962C524.766 202.885 523.63 207.239 521.358 211.026C519.086 214.765 515.891 217.676 511.773 219.759C507.655 221.794 502.946 222.812 497.644 222.812H475.918V173.112ZM497.218 215.002C500.863 215.002 504.058 214.316 506.803 212.943C509.596 211.523 511.726 209.535 513.193 206.979C514.708 204.376 515.465 201.37 515.465 197.962C515.465 194.554 514.708 191.572 513.193 189.016C511.726 186.413 509.596 184.425 506.803 183.052C504.058 181.632 500.863 180.922 497.218 180.922H485.148V215.002H497.218Z" fill="#333333"/>
<path d="M569.367 204.068C569.367 204.683 569.319 205.559 569.225 206.695H539.476C539.996 209.488 541.345 211.712 543.523 213.369C545.747 214.978 548.493 215.783 551.759 215.783C555.924 215.783 559.356 214.41 562.054 211.665L566.811 217.132C565.107 219.167 562.953 220.706 560.35 221.747C557.746 222.788 554.812 223.309 551.546 223.309C547.38 223.309 543.712 222.481 540.541 220.824C537.369 219.167 534.908 216.872 533.157 213.937C531.453 210.955 530.601 207.594 530.601 203.855C530.601 200.163 531.429 196.85 533.086 193.915C534.79 190.933 537.133 188.614 540.115 186.957C543.097 185.3 546.457 184.472 550.197 184.472C553.889 184.472 557.178 185.3 560.066 186.957C563 188.566 565.272 190.862 566.882 193.844C568.538 196.779 569.367 200.187 569.367 204.068ZM550.197 191.572C547.357 191.572 544.943 192.424 542.955 194.128C541.014 195.785 539.831 198.009 539.405 200.802H560.918C560.539 198.057 559.379 195.832 557.439 194.128C555.498 192.424 553.084 191.572 550.197 191.572Z" fill="#333333"/>
<path d="M589.607 223.309C586.53 223.309 583.524 222.907 580.59 222.102C577.655 221.297 575.312 220.28 573.561 219.049L576.969 212.304C578.673 213.44 580.708 214.363 583.075 215.073C585.489 215.736 587.855 216.067 590.175 216.067C595.476 216.067 598.127 214.671 598.127 211.878C598.127 210.553 597.44 209.63 596.068 209.109C594.742 208.588 592.589 208.091 589.607 207.618C586.483 207.145 583.927 206.6 581.939 205.985C579.998 205.37 578.294 204.305 576.827 202.79C575.407 201.228 574.697 199.074 574.697 196.329C574.697 192.732 576.188 189.868 579.17 187.738C582.199 185.561 586.27 184.472 591.382 184.472C593.985 184.472 596.588 184.78 599.192 185.395C601.795 185.963 603.925 186.744 605.582 187.738L602.174 194.483C598.955 192.59 595.334 191.643 591.311 191.643C588.707 191.643 586.719 192.045 585.347 192.85C584.021 193.607 583.359 194.625 583.359 195.903C583.359 197.323 584.069 198.341 585.489 198.956C586.956 199.524 589.204 200.068 592.234 200.589C595.263 201.062 597.748 201.607 599.689 202.222C601.629 202.837 603.286 203.879 604.659 205.346C606.079 206.813 606.789 208.896 606.789 211.594C606.789 215.144 605.25 217.984 602.174 220.114C599.097 222.244 594.908 223.309 589.607 223.309Z" fill="#333333"/>
<path d="M614.432 184.898H623.307V222.812H614.432V184.898ZM618.905 178.65C617.295 178.65 615.946 178.153 614.858 177.159C613.769 176.118 613.225 174.84 613.225 173.325C613.225 171.81 613.769 170.556 614.858 169.562C615.946 168.521 617.295 168 618.905 168C620.514 168 621.863 168.497 622.952 169.491C624.04 170.438 624.585 171.645 624.585 173.112C624.585 174.674 624.04 175.999 622.952 177.088C621.91 178.129 620.561 178.65 618.905 178.65Z" fill="#333333"/>
<path d="M672.585 184.898V217.061C672.585 230.409 665.769 237.083 652.137 237.083C648.492 237.083 645.037 236.61 641.771 235.663C638.505 234.764 635.807 233.438 633.677 231.687L637.653 225.013C639.31 226.386 641.392 227.474 643.901 228.279C646.457 229.131 649.037 229.557 651.64 229.557C655.805 229.557 658.858 228.61 660.799 226.717C662.74 224.824 663.71 221.936 663.71 218.055V216.067C662.195 217.724 660.349 218.978 658.172 219.83C655.995 220.682 653.604 221.108 651.001 221.108C647.404 221.108 644.138 220.351 641.203 218.836C638.316 217.274 636.02 215.097 634.316 212.304C632.659 209.511 631.831 206.316 631.831 202.719C631.831 199.122 632.659 195.95 634.316 193.205C636.02 190.412 638.316 188.259 641.203 186.744C644.138 185.229 647.404 184.472 651.001 184.472C653.746 184.472 656.231 184.922 658.456 185.821C660.728 186.72 662.621 188.093 664.136 189.939V184.898H672.585ZM652.35 213.582C655.711 213.582 658.456 212.588 660.586 210.6C662.763 208.565 663.852 205.938 663.852 202.719C663.852 199.548 662.763 196.968 660.586 194.98C658.456 192.992 655.711 191.998 652.35 191.998C648.942 191.998 646.149 192.992 643.972 194.98C641.842 196.968 640.777 199.548 640.777 202.719C640.777 205.938 641.842 208.565 643.972 210.6C646.149 212.588 648.942 213.582 652.35 213.582Z" fill="#333333"/>
<path d="M705.766 184.472C710.547 184.472 714.381 185.868 717.268 188.661C720.155 191.454 721.599 195.595 721.599 201.086V222.812H712.724V202.222C712.724 198.909 711.943 196.424 710.381 194.767C708.819 193.063 706.594 192.211 703.707 192.211C700.441 192.211 697.861 193.205 695.968 195.193C694.075 197.134 693.128 199.95 693.128 203.642V222.812H684.253V184.898H692.702V189.797C694.169 188.046 696.015 186.72 698.24 185.821C700.465 184.922 702.973 184.472 705.766 184.472Z" fill="#333333"/>
<path d="M581.085 261.525C573.264 257.673 569.745 275.969 568.962 285.598C568.562 289.372 552.929 293.796 543.283 302.645C533.637 311.493 538.851 322.684 537.417 342.854C536.27 358.989 529.639 355.823 526.467 352.223C525.859 348.753 521.279 344.806 507.827 356.777C494.374 368.749 501.266 379.376 506.393 383.193C517.473 385.622 543.361 388.71 558.273 381.631C576.914 372.783 571.439 342.073 570.657 331.142C570.031 322.398 576.393 318.303 579.651 317.349C587.951 313.662 603.219 301.395 597.901 281.824C591.253 257.361 590.862 266.339 581.085 261.525Z" fill="#F9DED4"/>
<path d="M93.4147 188.15C100.939 187.911 95.0807 171.794 91.2113 163.765C89.7641 160.578 99.2076 150.41 102.211 139.246C105.214 128.081 96.2187 121.347 87.9638 104.616C81.3598 91.2314 87.6926 90.9499 91.6845 92.4823C93.7329 94.998 98.9193 96.2106 103.278 80.9348C107.636 65.659 97.6688 60.0874 92.1402 59.2111C82.8788 61.9693 62.4335 70.4818 54.7443 82.4659C45.1329 97.4459 63.3281 119.672 68.9473 128.077C73.4426 134.802 70.6587 140.773 68.7049 142.918C64.309 149.386 58.7523 165.668 71.6919 179.056C87.8664 195.791 84.0099 188.448 93.4147 188.15Z" fill="#FFE090"/>
<path d="M850.105 122.782C849.261 126.688 853.704 128.207 856.031 128.479C859.061 127.963 866.34 126.721 871.211 125.874C876.081 125.028 879.788 126.227 881.033 126.932C882.332 129.347 883.89 134.387 879.734 135.233C875.578 136.08 866.746 140.361 862.85 142.395C861.794 143.806 859.927 147.506 860.901 151.022C861.876 154.537 867.152 155.959 869.668 156.23C873.375 155.715 881.422 154.505 883.955 153.789C886.488 153.073 888.798 155.335 889.637 156.556C891.45 162.632 894.995 175.453 894.67 178.122C894.345 180.791 892.749 181.947 891.991 182.191C890.909 182.462 884.848 184.275 869.262 189.353C866.015 189.678 865.528 193.178 865.691 197.328C865.821 200.649 871.86 202.889 874.863 203.595C880.654 202.266 893.047 199.395 896.294 198.549C899.541 197.703 900.893 200.095 901.164 201.397L903.68 214.012C905.818 216.752 911.181 221.955 915.532 220.848C919.883 219.741 922.324 214.636 923 212.221C919.726 194.127 911.749 154.033 906.035 138.407C898.891 118.876 896.699 119.934 890.611 111.795C884.523 103.657 867.314 107.645 860.496 110.9C853.677 114.155 851.16 117.899 850.105 122.782Z" fill="#EFF6F9"/>
<path d="M226.968 314.706C220.535 308.283 165.417 304.143 138.662 302.876C106.593 300.781 109.629 312.56 114.482 320.761C119.334 328.962 159.949 323.432 172.685 328.547C185.422 333.662 179.122 337.15 179.122 337.15C179.122 337.15 168.99 343.214 163.936 346.284C155.853 357.979 168.689 360.837 168.689 360.837C168.689 360.837 201.371 368.404 217.763 371.093C236.46 373.59 268.775 376 273.581 367.338C279.031 357.515 267.649 355.51 258.528 351.975C249.32 348.405 220.318 344.818 212.097 343.691C205.52 342.79 209.198 340.367 211.859 339.268L225.985 329.227C228.993 327.063 233.401 321.13 226.968 314.706Z" fill="#92C3BE"/>
<path d="M866.613 390.143C875.334 392.152 900.192 372.12 911.53 361.853C925.686 349.969 913 342.619 903.133 338.648C893.267 334.677 883.357 355.717 873.539 357.303C863.721 358.889 862.682 353.701 862.682 353.701C862.682 353.701 860.564 345.025 859.464 340.663C851.055 328.723 843.411 332.003 843.411 332.003C843.411 332.003 823.663 340.139 814.842 345.029C805.339 351.025 790.782 362.782 797.455 371.131C805.023 380.6 811.283 377.305 818.189 376.076C825.161 374.835 839.62 365.326 843.827 362.711C847.193 360.619 848.178 363.931 848.251 365.848L852.758 379.106C853.742 381.948 857.892 388.134 866.613 390.143Z" fill="#FFE090"/>
<path fill-rule="evenodd" clip-rule="evenodd" d="M806.349 34.7786C803.227 29.9669 796.725 28.5536 791.828 31.622L749.98 57.8431L753.04 48.0701C754.748 42.6156 751.633 36.8334 746.082 35.1551C740.531 33.4768 734.646 36.538 732.938 41.9925L721.466 78.628C720.169 82.7682 721.638 87.2635 725.146 89.8878C728.653 92.5121 733.454 92.7083 737.171 90.3793L803.137 49.0469C808.034 45.9785 809.472 39.5904 806.349 34.7786Z" fill="#FF6B6B"/>
<path fill-rule="evenodd" clip-rule="evenodd" d="M346.261 39.056C355.315 31.959 362.084 21.9446 365.254 15.2759C369.808 5.69695 381.264 1.6231 390.843 6.17673C400.422 10.7304 404.496 22.1871 399.943 31.7661C394.781 42.6235 384.618 57.7923 369.955 69.2854C354.949 81.0471 333.736 89.9396 308.612 83.6745C298.321 81.1082 292.059 70.6853 294.625 60.3942C297.192 50.1031 307.615 43.8409 317.906 46.4072C328.258 48.9888 337.549 45.8844 346.261 39.056Z" fill="#EFF6F9"/>
</g>
<defs>
<clipPath id="clip0">
<rect width="941" height="423" fill="white"/>
</clipPath>
</defs>
</svg>
