<svg width="375" height="216" viewBox="0 0 375 216" fill="none" xmlns="http://www.w3.org/2000/svg"><g clip-path="url(#clip0)"><path fill="#fff" d="M0 0h375v216H0z"/><path fill-rule="evenodd" clip-rule="evenodd" d="M131.247 66.857c1.269 16.2842-13.9 28.3904-24.024 41.819-8.5704 11.366-16.0585 23.441-29.426 29.072-15.6415 6.589-33.7547 10.97-48.7891 3.875-15.5912-7.356-22.034-24.178-27.67482-39.956-6.3068-17.6399-14.87978-36.8911-5.84156-53.7893 9.3045-17.396 30.55158-25.0049 50.34368-29.4129 18.7822-4.183 38.5037-3.2572 54.8258 5.9904 16.064 9.1016 29.185 24.4205 30.586 42.4018z" fill="#92C3BE"/><path fill-rule="evenodd" clip-rule="evenodd" d="M342.052 196.444c-14.219 9.756-33.295 2.278-50.917.11-14.916-1.836-29.909-2.308-42.113-11.558-14.281-10.823-27.848-25.071-29.298-42.562-1.504-18.138 10.475-32.908 21.923-46.3943 12.799-15.078 25.875-33.0784 46.096-33.7348 20.817-.6757 38.989 14.7339 53.467 30.5029 13.739 14.9642 23.303 33.4842 23.464 53.2892.158 19.492-6.922 39.575-22.622 50.347z" fill="#EFF6F9"/><path d="M55.0255 93.892h9.5189c2.3227 0 4.3862.4562 6.1904 1.3687 1.8042.8917 3.2041 2.1672 4.1995 3.8262.9955 1.6381 1.4932 3.5361 1.4932 5.6931 0 2.156-.4977 4.064-1.4932 5.723-.9954 1.639-2.3953 2.914-4.1995 3.827-1.8042.891-3.8677 1.337-6.1904 1.337h-9.5189V93.892zm9.3323 18.353c1.5968 0 2.9967-.3 4.1995-.902 1.2235-.622 2.1568-1.493 2.7997-2.613.6636-1.14.9954-2.457.9954-3.95 0-1.494-.3318-2.8-.9954-3.92-.6429-1.1406-1.5762-2.0116-2.7997-2.613-1.2028-.6221-2.6027-.9332-4.1995-.9332h-5.2883v14.9312h5.2883zM80.7257 93.892h4.0439v21.775h-4.0439V93.892zM100.054 107.984v7.683h-4.0441v-7.621l-8.5546-14.154h4.324l6.377 10.608 6.4397-10.608h3.981l-8.523 14.092zM126.573 115.978c-1.68 0-3.308-.238-4.884-.715-1.555-.477-2.789-1.11-3.702-1.898l1.4-3.142c.892.706 1.981 1.286 3.266 1.742 1.307.436 2.614.654 3.92.654 1.618 0 2.82-.26 3.608-.778.809-.518 1.214-1.203 1.214-2.053 0-.622-.228-1.13-.685-1.524-.435-.415-.995-.737-1.679-.965-.685-.228-1.618-.487-2.8-.777-1.659-.394-3.007-.788-4.044-1.182-1.016-.395-1.898-1.006-2.644-1.836-.726-.85-1.089-1.991-1.089-3.422 0-1.2025.321-2.2912.964-3.2659.664-.9955 1.649-1.7835 2.956-2.3642 1.327-.5807 2.944-.871 4.852-.871 1.328 0 2.634.1659 3.92.4977s2.395.8088 3.328 1.431l-1.275 3.1418c-.954-.5599-1.949-.9851-2.986-1.2754-1.037-.2903-2.043-.4355-3.018-.4355-1.597 0-2.789.2696-3.577.8088-.768.5392-1.151 1.2547-1.151 2.1464 0 .6223.218 1.1303.653 1.5243.456.394 1.027.705 1.711.933.684.228 1.618.488 2.8.778 1.617.373 2.945.767 3.981 1.182 1.037.394 1.919 1.006 2.645 1.835.746.83 1.119 1.95 1.119 3.36 0 1.203-.331 2.292-.995 3.266-.643.975-1.628 1.753-2.955 2.333-1.327.581-2.945.871-4.853.871zM145.795 108.544l-2.893 2.737v4.386h-3.889V92.5854h3.889v13.9366l8.056-7.4662h4.667l-6.937 6.9682 7.59 9.643h-4.729l-5.754-7.123zM164.832 98.8692c2.447 0 4.313.591 5.599 1.7728 1.306 1.162 1.96 2.924 1.96 5.289v9.736h-3.671v-2.022c-.477.726-1.161 1.286-2.053 1.68-.871.373-1.929.56-3.173.56s-2.333-.207-3.266-.622c-.934-.436-1.659-1.027-2.178-1.773-.498-.768-.746-1.628-.746-2.582 0-1.493.549-2.686 1.648-3.578 1.12-.912 2.873-1.368 5.257-1.368h4.293v-.249c0-1.162-.352-2.053-1.057-2.675-.685-.623-1.711-.934-3.08-.934-.933 0-1.856.146-2.769.436-.891.29-1.648.695-2.27 1.213l-1.525-2.831c.871-.663 1.919-1.1715 3.142-1.524 1.224-.3526 2.52-.5288 3.889-.5288zm-.529 14.1848c.974 0 1.835-.218 2.582-.653.767-.456 1.306-1.099 1.617-1.929v-1.928h-4.013c-2.239 0-3.359.736-3.359 2.208 0 .705.28 1.265.84 1.68.56.415 1.337.622 2.333.622zM187.367 114.765c-.457.373-1.017.653-1.68.84-.643.187-1.328.28-2.053.28-1.825 0-3.236-.477-4.231-1.431-.995-.954-1.493-2.343-1.493-4.168v-7.995h-2.738v-3.1108h2.738v-3.7951h3.888v3.7951h4.449v3.1108h-4.449v7.901c0 .809.197 1.431.591 1.867.394.415.965.622 1.711.622.871 0 1.597-.228 2.178-.684l1.089 2.768zM205.634 107.455c0 .269-.02.653-.062 1.151h-13.034c.228 1.223.819 2.198 1.773 2.924.975.705 2.178 1.058 3.609 1.058 1.825 0 3.328-.602 4.51-1.805l2.085 2.396c-.747.891-1.691 1.565-2.831 2.022-1.141.456-2.427.684-3.858.684-1.825 0-3.432-.363-4.821-1.089-1.39-.726-2.468-1.731-3.235-3.017-.747-1.307-1.12-2.779-1.12-4.417 0-1.618.363-3.07 1.089-4.356.746-1.306 1.773-2.322 3.079-3.0481 1.307-.7258 2.779-1.0887 4.417-1.0887 1.618 0 3.059.3629 4.324 1.0887 1.286.7051 2.282 1.7111 2.987 3.0171.726 1.286 1.088 2.779 1.088 4.48zm-8.399-5.475c-1.244 0-2.302.373-3.173 1.12-.85.726-1.368 1.7-1.555 2.924h9.426c-.166-1.203-.674-2.178-1.525-2.924-.85-.747-1.908-1.12-3.173-1.12zM218.577 98.8692c1.618 0 3.059.3525 4.324 1.0576 1.286.7052 2.292 1.7002 3.018 2.9862.726 1.286 1.088 2.769 1.088 4.449 0 1.679-.362 3.172-1.088 4.479-.726 1.286-1.732 2.281-3.018 2.986-1.265.705-2.706 1.058-4.324 1.058-1.14 0-2.188-.197-3.142-.591-.933-.394-1.721-.985-2.364-1.773v2.146h-3.701V92.5854h3.888v8.4926c.664-.726 1.441-1.2756 2.333-1.6489.913-.3733 1.908-.5599 2.986-.5599zm-.435 13.6868c1.431 0 2.603-.477 3.515-1.43.933-.954 1.4-2.209 1.4-3.764 0-1.556-.467-2.811-1.4-3.764-.912-.954-2.084-1.431-3.515-1.431-.933 0-1.773.217-2.52.653-.746.415-1.337 1.016-1.773 1.804-.435.788-.653 1.701-.653 2.738 0 1.036.218 1.949.653 2.737.436.788 1.027 1.4 1.773 1.835.747.415 1.587.622 2.52.622zM238.161 115.885c-1.68 0-3.194-.363-4.542-1.089-1.348-.726-2.405-1.731-3.173-3.017-.746-1.307-1.12-2.779-1.12-4.417 0-1.639.374-3.101 1.12-4.387.768-1.285 1.825-2.291 3.173-3.0171 1.348-.7258 2.862-1.0887 4.542-1.0887 1.701 0 3.225.3629 4.573 1.0887 1.348.7261 2.395 1.7321 3.142 3.0171.767 1.286 1.151 2.748 1.151 4.387 0 1.638-.384 3.11-1.151 4.417-.747 1.286-1.794 2.291-3.142 3.017-1.348.726-2.872 1.089-4.573 1.089zm0-3.329c1.431 0 2.613-.477 3.546-1.43.933-.954 1.4-2.209 1.4-3.764 0-1.556-.467-2.811-1.4-3.764-.933-.954-2.115-1.431-3.546-1.431-1.431 0-2.613.477-3.546 1.431-.913.953-1.369 2.208-1.369 3.764 0 1.555.456 2.81 1.369 3.764.933.953 2.115 1.43 3.546 1.43zM256.878 98.8692c2.447 0 4.314.591 5.6 1.7728 1.306 1.162 1.959 2.924 1.959 5.289v9.736h-3.67v-2.022c-.477.726-1.162 1.286-2.053 1.68-.871.373-1.929.56-3.173.56-1.245 0-2.333-.207-3.267-.622-.933-.436-1.659-1.027-2.177-1.773-.498-.768-.747-1.628-.747-2.582 0-1.493.55-2.686 1.649-3.578 1.12-.912 2.872-1.368 5.257-1.368h4.293v-.249c0-1.162-.353-2.053-1.058-2.675-.684-.623-1.711-.934-3.079-.934-.934 0-1.856.146-2.769.436-.892.29-1.649.695-2.271 1.213l-1.524-2.831c.871-.663 1.918-1.1715 3.142-1.524 1.223-.3526 2.519-.5288 3.888-.5288zm-.529 14.1848c.975 0 1.836-.218 2.582-.653.768-.456 1.307-1.099 1.618-1.929v-1.928h-4.013c-2.24 0-3.36.736-3.36 2.208 0 .705.28 1.265.84 1.68.56.415 1.338.622 2.333.622zM273.129 101.482c1.12-1.7418 3.09-2.6128 5.911-2.6128v3.7018c-.332-.062-.633-.093-.902-.093-1.514 0-2.696.446-3.546 1.337-.851.871-1.276 2.136-1.276 3.795v8.057h-3.888V99.0558h3.701v2.4262zM298.456 92.5854v23.0816h-3.733v-2.146c-.643.788-1.441 1.379-2.395 1.773-.934.394-1.97.591-3.111.591-1.597 0-3.038-.353-4.324-1.058-1.265-.705-2.261-1.7-2.986-2.986-.726-1.307-1.089-2.8-1.089-4.479 0-1.68.363-3.163 1.089-4.449.725-1.286 1.721-2.281 2.986-2.9862 1.286-.7051 2.727-1.0576 4.324-1.0576 1.099 0 2.105.1866 3.017.5599.913.3733 1.691.9329 2.333 1.6799v-8.5236h3.889zm-8.772 19.9706c.933 0 1.773-.207 2.519-.622.747-.435 1.338-1.047 1.773-1.835.436-.788.654-1.701.654-2.737 0-1.037-.218-1.95-.654-2.738-.435-.788-1.026-1.389-1.773-1.804-.746-.436-1.586-.653-2.519-.653-.934 0-1.774.217-2.52.653-.747.415-1.338 1.016-1.773 1.804-.436.788-.654 1.701-.654 2.738 0 1.036.218 1.949.654 2.737.435.788 1.026 1.4 1.773 1.835.746.415 1.586.622 2.52.622zM308.675 115.885c-1.348 0-2.664-.176-3.95-.529-1.286-.352-2.313-.798-3.08-1.337l1.493-2.956c.747.498 1.639.902 2.675 1.213 1.058.291 2.095.436 3.111.436 2.323 0 3.484-.612 3.484-1.835 0-.581-.3-.985-.902-1.214-.581-.228-1.524-.445-2.831-.653-1.368-.207-2.488-.446-3.359-.715-.85-.27-1.597-.736-2.24-1.4-.622-.684-.933-1.628-.933-2.831 0-1.576.653-2.831 1.96-3.764 1.327-.9539 3.11-1.4308 5.35-1.4308 1.141 0 2.281.1348 3.422.4044 1.141.2488 2.074.591 2.8 1.0264l-1.494 2.955c-1.41-.829-2.996-1.244-4.759-1.244-1.141 0-2.012.176-2.613.529-.581.332-.871.778-.871 1.337 0 .623.311 1.068.933 1.338.643.249 1.628.487 2.955.716 1.328.207 2.416.445 3.267.715.85.27 1.576.726 2.177 1.369.622.643.933 1.555.933 2.737 0 1.556-.674 2.8-2.022 3.733-1.348.933-3.183 1.4-5.506 1.4z" fill="#333"/><path d="M328.126 134.938c2.764-.801 8.919-1.202 11.43 3.603 3.139 6.007 3.086 7.284 9.997 8.169M222.764 83.1382c-2.596-1.2412-7.458-5.038-6.135-10.2959 1.654-6.5725 2.544-7.4903-2.026-12.7501" stroke="#EFF6F9" stroke-width="4.81947" stroke-linecap="round"/><path d="M22.3083 50.8237l15.1157 9.639-2.6288-8.5436" stroke="#EFF6F9" stroke-width="4.81947" stroke-linecap="round" stroke-linejoin="round"/><path d="M343.241 55.6431l-15.115 9.6389 2.629-8.5436" stroke="#FFE090" stroke-width="4.81947" stroke-linecap="round" stroke-linejoin="round"/><path d="M37.3846 152.033c-1.2355 2.599-5.0217 7.469-10.2825 6.157" stroke="#FFE090" stroke-width="5.69574" stroke-linecap="round"/><circle cx="312.791" cy="56.0815" r="4.38134" fill="#92C3BE"/><circle cx="318.925" cy="152.032" r="4.38134" fill="#FF6B6B"/><circle cx="57.359" cy="52.1377" r="4.38134" fill="#92C3BE"/><circle cx="27.1278" cy="77.1113" r="4.38134" fill="#FF6B6B"/></g><defs><clipPath id="clip0"><path fill="#fff" d="M0 0h375v216H0z"/></clipPath></defs></svg>