<svg width="941" height="493" viewBox="0 0 941 493" fill="none" xmlns="http://www.w3.org/2000/svg">
<g clip-path="url(#clip0)">
<path fill-rule="evenodd" clip-rule="evenodd" d="M340.643 152.595C343.538 189.762 308.917 217.393 285.809 248.042C266.249 273.985 249.158 301.545 218.648 314.397C182.947 329.436 141.606 339.434 107.291 323.242C71.7055 306.451 57.0005 268.057 44.1258 232.046C29.7311 191.784 10.164 147.845 30.793 109.276C52.0297 69.5716 100.524 52.2049 145.698 42.1442C188.567 32.5969 233.579 34.71 270.832 55.8168C307.497 76.5903 337.445 111.554 340.643 152.595Z" fill="#92C3BE"/>
<path fill-rule="evenodd" clip-rule="evenodd" d="M821.785 448.366C789.332 470.633 745.793 453.565 705.573 448.616C671.528 444.426 637.308 443.348 609.452 422.237C576.857 397.535 545.893 365.014 542.583 325.093C539.151 283.694 566.492 249.982 592.621 219.202C621.834 184.788 651.678 143.703 697.831 142.205C745.343 140.663 786.82 175.834 819.864 211.825C851.222 245.98 873.051 288.25 873.418 333.453C873.779 377.941 857.62 423.778 821.785 448.366Z" fill="#EFF6F9"/>
<path d="M166.674 214.3H188.4C193.701 214.3 198.411 215.341 202.529 217.424C206.647 219.459 209.842 222.37 212.114 226.157C214.386 229.896 215.522 234.227 215.522 239.15C215.522 244.073 214.386 248.427 212.114 252.214C209.842 255.953 206.647 258.864 202.529 260.947C198.411 262.982 193.701 264 188.4 264H166.674V214.3ZM187.974 256.19C191.619 256.19 194.814 255.504 197.559 254.131C200.352 252.711 202.482 250.723 203.949 248.167C205.464 245.564 206.221 242.558 206.221 239.15C206.221 235.742 205.464 232.76 203.949 230.204C202.482 227.601 200.352 225.613 197.559 224.24C194.814 222.82 191.619 222.11 187.974 222.11H175.904V256.19H187.974Z" fill="#333333"/>
<path d="M225.332 214.3H234.562V264H225.332V214.3Z" fill="#333333"/>
<path d="M269.447 246.463V264H260.217V246.605L240.692 214.3H250.561L265.116 238.511L279.813 214.3H288.901L269.447 246.463Z" fill="#333333"/>
<path d="M329.975 264.71C326.141 264.71 322.425 264.166 318.828 263.077C315.278 261.988 312.461 260.545 310.379 258.746L313.574 251.575C315.609 253.184 318.094 254.51 321.029 255.551C324.011 256.545 326.993 257.042 329.975 257.042C333.667 257.042 336.412 256.45 338.211 255.267C340.057 254.084 340.98 252.522 340.98 250.581C340.98 249.161 340.459 248.001 339.418 247.102C338.424 246.155 337.146 245.422 335.584 244.901C334.022 244.38 331.892 243.789 329.194 243.126C325.407 242.227 322.33 241.327 319.964 240.428C317.644 239.529 315.633 238.132 313.929 236.239C312.272 234.298 311.444 231.695 311.444 228.429C311.444 225.684 312.177 223.199 313.645 220.974C315.159 218.702 317.408 216.903 320.39 215.578C323.419 214.253 327.111 213.59 331.466 213.59C334.495 213.59 337.477 213.969 340.412 214.726C343.346 215.483 345.879 216.572 348.009 217.992L345.098 225.163C342.92 223.885 340.648 222.915 338.282 222.252C335.915 221.589 333.619 221.258 331.395 221.258C327.75 221.258 325.028 221.873 323.23 223.104C321.478 224.335 320.603 225.968 320.603 228.003C320.603 229.423 321.1 230.583 322.094 231.482C323.135 232.381 324.437 233.091 325.999 233.612C327.561 234.133 329.691 234.724 332.389 235.387C336.081 236.239 339.11 237.138 341.477 238.085C343.843 238.984 345.855 240.381 347.512 242.274C349.216 244.167 350.068 246.723 350.068 249.942C350.068 252.687 349.31 255.172 347.796 257.397C346.328 259.622 344.08 261.397 341.051 262.722C338.021 264.047 334.329 264.71 329.975 264.71Z" fill="#333333"/>
<path d="M373.846 247.741L367.243 253.989V264H358.368V211.318H367.243V243.126L385.632 226.086H396.282L380.449 241.99L397.773 264H386.981L373.846 247.741Z" fill="#333333"/>
<path d="M417.296 225.66C422.882 225.66 427.142 227.009 430.076 229.707C433.058 232.358 434.549 236.381 434.549 241.777V264H426.171V259.385C425.083 261.042 423.521 262.32 421.485 263.219C419.497 264.071 417.083 264.497 414.243 264.497C411.403 264.497 408.918 264.024 406.788 263.077C404.658 262.083 403.002 260.734 401.818 259.03C400.682 257.279 400.114 255.314 400.114 253.137C400.114 249.729 401.369 247.007 403.877 244.972C406.433 242.889 410.433 241.848 415.876 241.848H425.674V241.28C425.674 238.629 424.869 236.594 423.26 235.174C421.698 233.754 419.355 233.044 416.231 233.044C414.101 233.044 411.995 233.375 409.912 234.038C407.877 234.701 406.149 235.624 404.729 236.807L401.25 230.346C403.238 228.831 405.629 227.672 408.421 226.867C411.214 226.062 414.172 225.66 417.296 225.66ZM416.089 258.036C418.314 258.036 420.278 257.539 421.982 256.545C423.734 255.504 424.964 254.036 425.674 252.143V247.741H416.515C411.403 247.741 408.847 249.421 408.847 252.782C408.847 254.391 409.486 255.669 410.764 256.616C412.042 257.563 413.817 258.036 416.089 258.036Z" fill="#333333"/>
<path d="M468.73 261.941C467.689 262.793 466.411 263.432 464.896 263.858C463.429 264.284 461.867 264.497 460.21 264.497C456.045 264.497 452.826 263.408 450.554 261.231C448.282 259.054 447.146 255.882 447.146 251.717V233.47H440.898V226.37H447.146V217.708H456.021V226.37H466.174V233.47H456.021V251.504C456.021 253.35 456.471 254.77 457.37 255.764C458.269 256.711 459.571 257.184 461.275 257.184C463.263 257.184 464.92 256.663 466.245 255.622L468.73 261.941Z" fill="#333333"/>
<path d="M510.425 245.256C510.425 245.871 510.378 246.747 510.283 247.883H480.534C481.055 250.676 482.404 252.9 484.581 254.557C486.806 256.166 489.551 256.971 492.817 256.971C496.982 256.971 500.414 255.598 503.112 252.853L507.869 258.32C506.165 260.355 504.011 261.894 501.408 262.935C498.805 263.976 495.87 264.497 492.604 264.497C488.439 264.497 484.77 263.669 481.599 262.012C478.428 260.355 475.966 258.06 474.215 255.125C472.511 252.143 471.659 248.782 471.659 245.043C471.659 241.351 472.487 238.038 474.144 235.103C475.848 232.121 478.191 229.802 481.173 228.145C484.155 226.488 487.516 225.66 491.255 225.66C494.947 225.66 498.237 226.488 501.124 228.145C504.059 229.754 506.331 232.05 507.94 235.032C509.597 237.967 510.425 241.375 510.425 245.256ZM491.255 232.76C488.415 232.76 486.001 233.612 484.013 235.316C482.072 236.973 480.889 239.197 480.463 241.99H501.976C501.597 239.245 500.438 237.02 498.497 235.316C496.556 233.612 494.142 232.76 491.255 232.76Z" fill="#333333"/>
<path d="M539.966 225.66C543.658 225.66 546.948 226.465 549.835 228.074C552.77 229.683 555.065 231.955 556.722 234.89C558.379 237.825 559.207 241.209 559.207 245.043C559.207 248.877 558.379 252.285 556.722 255.267C555.065 258.202 552.77 260.474 549.835 262.083C546.948 263.692 543.658 264.497 539.966 264.497C537.363 264.497 534.972 264.047 532.795 263.148C530.665 262.249 528.866 260.9 527.399 259.101V264H518.95V211.318H527.825V230.701C529.34 229.044 531.115 227.79 533.15 226.938C535.233 226.086 537.505 225.66 539.966 225.66ZM538.972 256.9C542.238 256.9 544.912 255.811 546.995 253.634C549.125 251.457 550.19 248.593 550.19 245.043C550.19 241.493 549.125 238.629 546.995 236.452C544.912 234.275 542.238 233.186 538.972 233.186C536.842 233.186 534.925 233.683 533.221 234.677C531.517 235.624 530.168 236.996 529.174 238.795C528.18 240.594 527.683 242.676 527.683 245.043C527.683 247.41 528.18 249.492 529.174 251.291C530.168 253.09 531.517 254.486 533.221 255.48C534.925 256.427 536.842 256.9 538.972 256.9Z" fill="#333333"/>
<path d="M584.664 264.497C580.83 264.497 577.374 263.669 574.298 262.012C571.221 260.355 568.807 258.06 567.056 255.125C565.352 252.143 564.5 248.782 564.5 245.043C564.5 241.304 565.352 237.967 567.056 235.032C568.807 232.097 571.221 229.802 574.298 228.145C577.374 226.488 580.83 225.66 584.664 225.66C588.545 225.66 592.024 226.488 595.101 228.145C598.177 229.802 600.568 232.097 602.272 235.032C604.023 237.967 604.899 241.304 604.899 245.043C604.899 248.782 604.023 252.143 602.272 255.125C600.568 258.06 598.177 260.355 595.101 262.012C592.024 263.669 588.545 264.497 584.664 264.497ZM584.664 256.9C587.93 256.9 590.628 255.811 592.758 253.634C594.888 251.457 595.953 248.593 595.953 245.043C595.953 241.493 594.888 238.629 592.758 236.452C590.628 234.275 587.93 233.186 584.664 233.186C581.398 233.186 578.7 234.275 576.57 236.452C574.487 238.629 573.446 241.493 573.446 245.043C573.446 248.593 574.487 251.457 576.57 253.634C578.7 255.811 581.398 256.9 584.664 256.9Z" fill="#333333"/>
<path d="M627.384 225.66C632.969 225.66 637.229 227.009 640.164 229.707C643.146 232.358 644.637 236.381 644.637 241.777V264H636.259V259.385C635.17 261.042 633.608 262.32 631.573 263.219C629.585 264.071 627.171 264.497 624.331 264.497C621.491 264.497 619.006 264.024 616.876 263.077C614.746 262.083 613.089 260.734 611.906 259.03C610.77 257.279 610.202 255.314 610.202 253.137C610.202 249.729 611.456 247.007 613.965 244.972C616.521 242.889 620.521 241.848 625.964 241.848H635.762V241.28C635.762 238.629 634.957 236.594 633.348 235.174C631.786 233.754 629.443 233.044 626.319 233.044C624.189 233.044 622.083 233.375 620 234.038C617.965 234.701 616.237 235.624 614.817 236.807L611.338 230.346C613.326 228.831 615.716 227.672 618.509 226.867C621.302 226.062 624.26 225.66 627.384 225.66ZM626.177 258.036C628.402 258.036 630.366 257.539 632.07 256.545C633.821 255.504 635.052 254.036 635.762 252.143V247.741H626.603C621.491 247.741 618.935 249.421 618.935 252.782C618.935 254.391 619.574 255.669 620.852 256.616C622.13 257.563 623.905 258.036 626.177 258.036Z" fill="#333333"/>
<path d="M664.476 231.624C667.032 227.648 671.529 225.66 677.966 225.66V234.109C677.209 233.967 676.522 233.896 675.907 233.896C672.452 233.896 669.754 234.914 667.813 236.949C665.872 238.937 664.902 241.824 664.902 245.611V264H656.027V226.086H664.476V231.624Z" fill="#333333"/>
<path d="M722.281 211.318V264H713.761V259.101C712.294 260.9 710.471 262.249 708.294 263.148C706.164 264.047 703.797 264.497 701.194 264.497C697.549 264.497 694.26 263.692 691.325 262.083C688.438 260.474 686.166 258.202 684.509 255.267C682.852 252.285 682.024 248.877 682.024 245.043C682.024 241.209 682.852 237.825 684.509 234.89C686.166 231.955 688.438 229.683 691.325 228.074C694.26 226.465 697.549 225.66 701.194 225.66C703.703 225.66 705.998 226.086 708.081 226.938C710.164 227.79 711.939 229.068 713.406 230.772V211.318H722.281ZM702.259 256.9C704.389 256.9 706.306 256.427 708.01 255.48C709.714 254.486 711.063 253.09 712.057 251.291C713.051 249.492 713.548 247.41 713.548 245.043C713.548 242.676 713.051 240.594 712.057 238.795C711.063 236.996 709.714 235.624 708.01 234.677C706.306 233.683 704.389 233.186 702.259 233.186C700.129 233.186 698.212 233.683 696.508 234.677C694.804 235.624 693.455 236.996 692.461 238.795C691.467 240.594 690.97 242.676 690.97 245.043C690.97 247.41 691.467 249.492 692.461 251.291C693.455 253.09 694.804 254.486 696.508 255.48C698.212 256.427 700.129 256.9 702.259 256.9Z" fill="#333333"/>
<path d="M745.606 264.497C742.53 264.497 739.524 264.095 736.589 263.29C733.655 262.485 731.312 261.468 729.56 260.237L732.968 253.492C734.672 254.628 736.708 255.551 739.074 256.261C741.488 256.924 743.855 257.255 746.174 257.255C751.476 257.255 754.126 255.859 754.126 253.066C754.126 251.741 753.44 250.818 752.067 250.297C750.742 249.776 748.588 249.279 745.606 248.806C742.482 248.333 739.926 247.788 737.938 247.173C735.998 246.558 734.294 245.493 732.826 243.978C731.406 242.416 730.696 240.262 730.696 237.517C730.696 233.92 732.187 231.056 735.169 228.926C738.199 226.749 742.269 225.66 747.381 225.66C749.985 225.66 752.588 225.968 755.191 226.583C757.795 227.151 759.925 227.932 761.581 228.926L758.173 235.671C754.955 233.778 751.334 232.831 747.31 232.831C744.707 232.831 742.719 233.233 741.346 234.038C740.021 234.795 739.358 235.813 739.358 237.091C739.358 238.511 740.068 239.529 741.488 240.144C742.956 240.712 745.204 241.256 748.233 241.777C751.263 242.25 753.748 242.795 755.688 243.41C757.629 244.025 759.286 245.067 760.658 246.534C762.078 248.001 762.788 250.084 762.788 252.782C762.788 256.332 761.25 259.172 758.173 261.302C755.097 263.432 750.908 264.497 745.606 264.497Z" fill="#333333"/>
<path d="M790 307.983C796.308 306.155 810.358 305.239 816.089 316.207C823.253 329.917 823.131 332.832 838.906 334.852" stroke="#EFF6F9" stroke-width="11" stroke-linecap="round"/>
<path d="M549.522 189.755C543.596 186.922 532.499 178.257 535.52 166.256C539.295 151.255 541.325 149.16 530.894 137.155" stroke="#EFF6F9" stroke-width="11" stroke-linecap="round"/>
<path d="M91.9999 116L126.5 138L120.5 118.5" stroke="#EFF6F9" stroke-width="11" stroke-linecap="round" stroke-linejoin="round"/>
<path d="M824.5 127L790 149L796 129.5" stroke="#FFE090" stroke-width="11" stroke-linecap="round" stroke-linejoin="round"/>
<path d="M126.41 347C123.59 352.932 114.948 364.047 102.941 361.053" stroke="#FFE090" stroke-width="13" stroke-linecap="round"/>
<circle cx="755" cy="128" r="10" fill="#92C3BE"/>
<circle cx="769" cy="347" r="10" fill="#FF6B6B"/>
<circle cx="172" cy="119" r="10" fill="#92C3BE"/>
<circle cx="103" cy="176" r="10" fill="#FF6B6B"/>
</g>
<defs>
<clipPath id="clip0">
<rect width="941" height="493" fill="white"/>
</clipPath>
</defs>
</svg>
