<svg width="375" height="216" viewBox="0 0 375 216" fill="none" xmlns="http://www.w3.org/2000/svg"><g clip-path="url(#clip0)"><path fill="#fff" d="M0 0h375v216H0z"/><path fill-rule="evenodd" clip-rule="evenodd" d="M163.703 47.414c30.808-1.1405 56.388 8.1603 81.783 14.9551 25.955 6.9442 56.706 13.1762 66.521 24.7247 9.82 11.5535.082 30.0602-15.575 40.6222-13.86 9.349-44.167 6.498-64.962 13.707-24.619 8.534-35.338 24.017-67.767 26.687-33.136 2.728-67.6512-4.733-92.7747-13.468-23.678-8.233-34.3951-20.425-39.5258-32.532-4.549-10.735 1.1125-21.497 12.4037-31.4713 10.4197-9.2044 29.7654-15.7416 48.8192-22.6107 22.1896-7.9996 40.7846-19.4925 71.0776-20.614z" fill="#F9DED4"/><path d="M325.13 134.938c2.764-.801 8.919-1.202 11.43 3.603 3.139 6.007 3.086 7.284 9.997 8.169" stroke="#EFF6F9" stroke-width="4.81947" stroke-linecap="round"/><path d="M19.3124 50.8232l15.1156 9.639-2.6288-8.5436" stroke="#EFF6F9" stroke-width="4.81947" stroke-linecap="round" stroke-linejoin="round"/><path d="M340.245 55.6431L325.13 65.282l2.629-8.5436" stroke="#FFE090" stroke-width="4.81947" stroke-linecap="round" stroke-linejoin="round"/><path d="M34.3885 152.032c-1.2355 2.599-5.0217 7.469-10.2825 6.157" stroke="#FFE090" stroke-width="5.69574" stroke-linecap="round"/><circle cx="309.795" cy="56.081" r="4.38134" fill="#92C3BE"/><circle cx="315.929" cy="152.033" r="4.38134" fill="#FF6B6B"/><circle cx="54.3632" cy="52.1382" r="4.38134" fill="#92C3BE"/><circle cx="24.1318" cy="77.1118" r="4.38134" fill="#FF6B6B"/><path d="M62.9488 116.933c-1.6798 0-3.3077-.239-4.8838-.716-1.5554-.477-2.7894-1.109-3.7018-1.897l1.3998-3.142c.8917.705 1.9805 1.286 3.2663 1.742 1.3065.435 2.613.653 3.9195.653 1.6176 0 2.8204-.259 3.6085-.777.8088-.519 1.2132-1.203 1.2132-2.054 0-.622-.2281-1.13-.6844-1.524-.4355-.415-.9954-.736-1.6798-.964-.6843-.228-1.6176-.487-2.7997-.778-1.659-.394-3.007-.788-4.0439-1.182-1.0162-.394-1.8976-1.006-2.6442-1.835-.7258-.851-1.0887-1.991-1.0887-3.422 0-1.2029.3214-2.2917.9643-3.2664.6636-.9954 1.6487-1.7835 2.9552-2.3641 1.3273-.5807 2.9449-.871 4.8528-.871 1.3272 0 2.6338.1659 3.9195.4977 1.2858.3318 2.3953.8088 3.3285 1.4309l-1.2754 3.1419c-.9539-.56-1.9494-.9851-2.9863-1.2754-1.0369-.2904-2.0427-.4355-3.0174-.4355-1.5969 0-2.7893.2696-3.5774.8088-.7673.5392-1.151 1.2546-1.151 2.1461 0 .622.2178 1.131.6533 1.525.4562.394 1.0265.705 1.7109.933.6844.228 1.6176.487 2.7997.777 1.6176.374 2.9448.768 3.9817 1.183 1.037.394 1.9183 1.005 2.6442 1.835.7466.829 1.1199 1.949 1.1199 3.359 0 1.203-.3319 2.292-.9955 3.267-.6429.974-1.6279 1.752-2.9552 2.333-1.3273.581-2.9448.871-4.8528.871zM92.5603 100.01v16.612h-3.7018v-2.116c-.6222.747-1.3999 1.328-2.3331 1.742-.9332.395-1.939.592-3.0174.592-2.219 0-3.9714-.612-5.2572-1.836-1.265-1.244-1.8976-3.079-1.8976-5.506v-9.488h3.8885v8.959c0 1.494.3318 2.613.9954 3.36.6844.726 1.6487 1.089 2.893 1.089 1.3895 0 2.4886-.425 3.2974-1.276.8296-.871 1.2443-2.115 1.2443-3.733v-8.399h3.8885zM102.442 102.437c1.12-1.742 3.09-2.6133 5.91-2.6133v3.7023c-.331-.063-.632-.094-.902-.094-1.514 0-2.696.446-3.546 1.338-.85.871-1.275 2.136-1.275 3.795v8.057h-3.8888V100.01h3.7018v2.427zM119.642 96.4641c-1.638 0-2.457.8918-2.457 2.6753v.9956h4.572v3.111h-4.448v13.376h-3.888v-13.376h-2.738v-3.111h2.738v-1.0578c0-1.7835.518-3.1834 1.555-4.1996 1.037-1.0369 2.499-1.5553 4.386-1.5553 1.493 0 2.665.3007 3.515.9021l-1.089 2.9241c-.663-.4563-1.379-.6844-2.146-.6844zM134.671 99.8237c1.618 0 3.059.3523 4.324 1.0573 1.286.705 2.292 1.701 3.018 2.987.726 1.285 1.088 2.768 1.088 4.448 0 1.68-.362 3.173-1.088 4.48-.726 1.285-1.732 2.281-3.018 2.986-1.265.705-2.706 1.058-4.324 1.058-1.14 0-2.188-.197-3.142-.592-.933-.394-1.721-.985-2.364-1.773v2.147h-3.702V93.54h3.889v8.492c.664-.725 1.441-1.275 2.333-1.648.912-.374 1.908-.5603 2.986-.5603zm-.435 13.6873c1.431 0 2.602-.477 3.515-1.431.933-.954 1.4-2.209 1.4-3.764 0-1.555-.467-2.81-1.4-3.764-.913-.954-2.084-1.431-3.515-1.431-.933 0-1.773.218-2.52.653-.746.415-1.338 1.017-1.773 1.805-.436.788-.653 1.7-.653 2.737 0 1.037.217 1.949.653 2.738.435.788 1.027 1.399 1.773 1.835.747.415 1.587.622 2.52.622zM155.344 116.84c-1.68 0-3.194-.363-4.542-1.089-1.348-.726-2.406-1.732-3.173-3.018-.747-1.306-1.12-2.779-1.12-4.417s.373-3.1 1.12-4.386c.767-1.286 1.825-2.292 3.173-3.018 1.348-.725 2.862-1.0883 4.542-1.0883 1.7 0 3.225.3633 4.573 1.0883 1.348.726 2.395 1.732 3.141 3.018.768 1.286 1.151 2.748 1.151 4.386s-.383 3.111-1.151 4.417c-.746 1.286-1.793 2.292-3.141 3.018s-2.873 1.089-4.573 1.089zm0-3.329c1.431 0 2.613-.477 3.546-1.431.933-.954 1.4-2.209 1.4-3.764 0-1.555-.467-2.81-1.4-3.764-.933-.954-2.115-1.431-3.546-1.431-1.431 0-2.613.477-3.547 1.431-.912.954-1.368 2.209-1.368 3.764 0 1.555.456 2.81 1.368 3.764.934.954 2.116 1.431 3.547 1.431zM175.15 99.8237c2.447 0 4.313.5913 5.599 1.7733 1.307 1.161 1.96 2.924 1.96 5.288v9.737h-3.671V114.6c-.477.726-1.161 1.286-2.053 1.68-.871.373-1.929.56-3.173.56s-2.333-.208-3.266-.623c-.933-.435-1.659-1.026-2.178-1.773-.497-.767-.746-1.628-.746-2.582 0-1.493.549-2.685 1.648-3.577 1.12-.913 2.873-1.369 5.258-1.369h4.292v-.249c0-1.161-.352-2.053-1.057-2.675-.685-.622-1.711-.933-3.08-.933-.933 0-1.856.145-2.768.435-.892.291-1.649.695-2.271 1.214l-1.525-2.831c.871-.664 1.919-1.172 3.142-1.524 1.224-.353 2.52-.5293 3.889-.5293zm-.529 14.1853c.975 0 1.835-.218 2.582-.654.767-.456 1.306-1.099 1.617-1.928v-1.929h-4.012c-2.24 0-3.36.736-3.36 2.209 0 .705.28 1.265.84 1.68.56.414 1.337.622 2.333.622zM192.49 102.437c1.12-1.742 3.09-2.6133 5.91-2.6133v3.7023c-.332-.063-.632-.094-.902-.094-1.514 0-2.696.446-3.546 1.338-.851.871-1.276 2.136-1.276 3.795v8.057h-3.888V100.01h3.702v2.427zM218.905 93.54v23.082h-3.733v-2.147c-.643.788-1.441 1.379-2.395 1.773-.934.395-1.97.592-3.111.592-1.597 0-3.038-.353-4.324-1.058-1.265-.705-2.26-1.701-2.986-2.986-.726-1.307-1.089-2.8-1.089-4.48 0-1.68.363-3.163 1.089-4.448.726-1.286 1.721-2.282 2.986-2.987 1.286-.705 2.727-1.0573 4.324-1.0573 1.099 0 2.105.1863 3.017.5603.913.373 1.691.933 2.333 1.679V93.54h3.889zm-8.772 19.971c.933 0 1.773-.207 2.519-.622.747-.436 1.338-1.047 1.773-1.835.436-.789.654-1.701.654-2.738s-.218-1.949-.654-2.737c-.435-.788-1.026-1.39-1.773-1.805-.746-.435-1.586-.653-2.519-.653-.934 0-1.774.218-2.52.653-.747.415-1.338 1.017-1.773 1.805-.436.788-.654 1.7-.654 2.737 0 1.037.218 1.949.654 2.738.435.788 1.026 1.399 1.773 1.835.746.415 1.586.622 2.52.622zM243.974 99.8237c1.618 0 3.059.3523 4.324 1.0573 1.286.705 2.292 1.701 3.017 2.987.726 1.285 1.089 2.768 1.089 4.448 0 1.68-.363 3.173-1.089 4.48-.725 1.285-1.731 2.281-3.017 2.986-1.265.705-2.706 1.058-4.324 1.058-1.141 0-2.188-.197-3.142-.592-.933-.394-1.721-.985-2.364-1.773v2.147h-3.702V93.54h3.889v8.492c.663-.725 1.441-1.275 2.333-1.648.912-.374 1.908-.5603 2.986-.5603zm-.435 13.6873c1.431 0 2.602-.477 3.515-1.431.933-.954 1.4-2.209 1.4-3.764 0-1.555-.467-2.81-1.4-3.764-.913-.954-2.084-1.431-3.515-1.431-.934 0-1.774.218-2.52.653-.747.415-1.338 1.017-1.773 1.805-.436.788-.654 1.7-.654 2.737 0 1.037.218 1.949.654 2.738.435.788 1.026 1.399 1.773 1.835.746.415 1.586.622 2.52.622zM263.314 99.8237c2.447 0 4.314.5913 5.599 1.7733 1.307 1.161 1.96 2.924 1.96 5.288v9.737h-3.671V114.6c-.477.726-1.161 1.286-2.053 1.68-.871.373-1.928.56-3.173.56-1.244 0-2.333-.208-3.266-.623-.933-.435-1.659-1.026-2.177-1.773-.498-.767-.747-1.628-.747-2.582 0-1.493.55-2.685 1.649-3.577 1.12-.913 2.872-1.369 5.257-1.369h4.293v-.249c0-1.161-.353-2.053-1.058-2.675-.684-.622-1.711-.933-3.08-.933-.933 0-1.856.145-2.768.435-.892.291-1.649.695-2.271 1.214l-1.524-2.831c.871-.664 1.918-1.172 3.142-1.524 1.223-.353 2.519-.5293 3.888-.5293zm-.529 14.1853c.975 0 1.835-.218 2.582-.654.767-.456 1.307-1.099 1.618-1.928v-1.929h-4.013c-2.24 0-3.36.736-3.36 2.209 0 .705.28 1.265.84 1.68.56.414 1.338.622 2.333.622zM293.591 100.01v14.092c0 5.848-2.986 8.772-8.959 8.772-1.597 0-3.111-.207-4.542-.622-1.431-.394-2.613-.974-3.546-1.742l1.742-2.924c.726.602 1.638 1.079 2.738 1.431 1.119.373 2.25.56 3.39.56 1.825 0 3.163-.415 4.013-1.244.85-.83 1.276-2.095 1.276-3.795v-.871c-.664.725-1.473 1.275-2.427 1.648-.954.374-2.001.56-3.142.56-1.576 0-3.007-.332-4.292-.995-1.265-.685-2.271-1.639-3.018-2.862-.726-1.224-1.089-2.624-1.089-4.2s.363-2.965 1.089-4.168c.747-1.224 1.753-2.167 3.018-2.831 1.285-.663 2.716-.9953 4.292-.9953 1.203 0 2.292.1973 3.267.5913.995.394 1.825.995 2.488 1.804v-2.209h3.702zm-8.866 12.568c1.473 0 2.676-.436 3.609-1.307.954-.891 1.431-2.042 1.431-3.453 0-1.389-.477-2.519-1.431-3.39-.933-.871-2.136-1.307-3.609-1.307-1.493 0-2.716.436-3.67 1.307-.933.871-1.4 2.001-1.4 3.39 0 1.411.467 2.562 1.4 3.453.954.871 2.177 1.307 3.67 1.307z" fill="#181818"/></g><defs><clipPath id="clip0"><path fill="#fff" d="M0 0h375v216H0z"/></clipPath></defs></svg>