<svg width="941" height="493" viewBox="0 0 941 493" fill="none" xmlns="http://www.w3.org/2000/svg">
<path fill-rule="evenodd" clip-rule="evenodd" d="M421.559 108.218C491.875 105.615 550.258 126.843 608.221 142.352C667.459 158.201 737.647 172.425 760.049 198.784C782.461 225.153 760.235 267.394 724.5 291.5C692.866 312.839 623.692 306.331 576.231 322.784C520.04 342.264 495.574 377.601 421.559 383.696C345.927 389.923 267.151 372.894 209.808 352.956C155.766 334.166 131.305 306.339 119.594 278.705C109.212 254.203 122.134 229.64 147.905 206.875C171.687 185.866 215.842 170.946 259.33 155.268C309.975 137.009 352.417 110.778 421.559 108.218Z" fill="#F9DED4"/>
<path d="M790 307.983C796.308 306.155 810.358 305.239 816.089 316.207C823.253 329.917 823.131 332.832 838.906 334.852" stroke="#EFF6F9" stroke-width="11" stroke-linecap="round"/>
<path d="M91.9999 116L126.5 138L120.5 118.5" stroke="#EFF6F9" stroke-width="11" stroke-linecap="round" stroke-linejoin="round"/>
<path d="M824.5 127L790 149L796 129.5" stroke="#FFE090" stroke-width="11" stroke-linecap="round" stroke-linejoin="round"/>
<path d="M126.41 347C123.59 352.932 114.948 364.047 102.941 361.053" stroke="#FFE090" stroke-width="13" stroke-linecap="round"/>
<circle cx="755" cy="128" r="10" fill="#92C3BE"/>
<circle cx="769" cy="347" r="10" fill="#FF6B6B"/>
<circle cx="172" cy="119" r="10" fill="#92C3BE"/>
<circle cx="103" cy="176" r="10" fill="#FF6B6B"/>
<path d="M191.596 266.889C187.762 266.889 184.046 266.345 180.449 265.256C176.899 264.167 174.083 262.724 172 260.925L175.195 253.754C177.23 255.363 179.715 256.689 182.65 257.73C185.632 258.724 188.614 259.221 191.596 259.221C195.288 259.221 198.033 258.629 199.832 257.446C201.678 256.263 202.601 254.701 202.601 252.76C202.601 251.34 202.08 250.18 201.039 249.281C200.045 248.334 198.767 247.601 197.205 247.08C195.643 246.559 193.513 245.968 190.815 245.305C187.028 244.406 183.952 243.506 181.585 242.607C179.266 241.708 177.254 240.311 175.55 238.418C173.893 236.477 173.065 233.874 173.065 230.608C173.065 227.863 173.799 225.378 175.266 223.153C176.781 220.881 179.029 219.082 182.011 217.757C185.04 216.432 188.732 215.769 193.087 215.769C196.116 215.769 199.098 216.148 202.033 216.905C204.968 217.662 207.5 218.751 209.63 220.171L206.719 227.342C204.542 226.064 202.27 225.094 199.903 224.431C197.536 223.768 195.241 223.437 193.016 223.437C189.371 223.437 186.65 224.052 184.851 225.283C183.1 226.514 182.224 228.147 182.224 230.182C182.224 231.602 182.721 232.762 183.715 233.661C184.756 234.56 186.058 235.27 187.62 235.791C189.182 236.312 191.312 236.903 194.01 237.566C197.702 238.418 200.731 239.317 203.098 240.264C205.465 241.163 207.476 242.56 209.133 244.453C210.837 246.346 211.689 248.902 211.689 252.121C211.689 254.866 210.932 257.351 209.417 259.576C207.95 261.801 205.701 263.576 202.672 264.901C199.643 266.226 195.951 266.889 191.596 266.889Z" fill="#181818"/>
<path d="M259.181 228.265V266.179H250.732V261.351C249.312 263.055 247.537 264.38 245.407 265.327C243.277 266.226 240.982 266.676 238.52 266.676C233.456 266.676 229.456 265.28 226.521 262.487C223.634 259.647 222.19 255.458 222.19 249.92V228.265H231.065V248.713C231.065 252.121 231.823 254.677 233.337 256.381C234.899 258.038 237.1 258.866 239.94 258.866C243.112 258.866 245.62 257.896 247.466 255.955C249.36 253.967 250.306 251.127 250.306 247.435V228.265H259.181Z" fill="#181818"/>
<path d="M281.735 233.803C284.291 229.827 288.788 227.839 295.225 227.839V236.288C294.468 236.146 293.782 236.075 293.166 236.075C289.711 236.075 287.013 237.093 285.072 239.128C283.132 241.116 282.161 244.003 282.161 247.79V266.179H273.286V228.265H281.735V233.803Z" fill="#181818"/>
<path d="M320.993 220.171C317.254 220.171 315.384 222.206 315.384 226.277V228.549H325.821V235.649H315.668V266.179H306.793V235.649H300.545V228.549H306.793V226.135C306.793 222.064 307.976 218.869 310.343 216.55C312.71 214.183 316.047 213 320.354 213C323.762 213 326.436 213.686 328.377 215.059L325.892 221.733C324.377 220.692 322.744 220.171 320.993 220.171Z" fill="#181818"/>
<path d="M355.296 227.839C358.988 227.839 362.278 228.644 365.165 230.253C368.1 231.862 370.395 234.134 372.052 237.069C373.709 240.004 374.537 243.388 374.537 247.222C374.537 251.056 373.709 254.464 372.052 257.446C370.395 260.381 368.1 262.653 365.165 264.262C362.278 265.871 358.988 266.676 355.296 266.676C352.693 266.676 350.302 266.226 348.125 265.327C345.995 264.428 344.196 263.079 342.729 261.28V266.179H334.28V213.497H343.155V232.88C344.67 231.223 346.445 229.969 348.48 229.117C350.563 228.265 352.835 227.839 355.296 227.839ZM354.302 259.079C357.568 259.079 360.242 257.99 362.325 255.813C364.455 253.636 365.52 250.772 365.52 247.222C365.52 243.672 364.455 240.808 362.325 238.631C360.242 236.454 357.568 235.365 354.302 235.365C352.172 235.365 350.255 235.862 348.551 236.856C346.847 237.803 345.498 239.175 344.504 240.974C343.51 242.773 343.013 244.855 343.013 247.222C343.013 249.589 343.51 251.671 344.504 253.47C345.498 255.269 346.847 256.665 348.551 257.659C350.255 258.606 352.172 259.079 354.302 259.079Z" fill="#181818"/>
<path d="M402.479 266.676C398.645 266.676 395.189 265.848 392.113 264.191C389.036 262.534 386.622 260.239 384.871 257.304C383.167 254.322 382.315 250.961 382.315 247.222C382.315 243.483 383.167 240.146 384.871 237.211C386.622 234.276 389.036 231.981 392.113 230.324C395.189 228.667 398.645 227.839 402.479 227.839C406.36 227.839 409.839 228.667 412.916 230.324C415.992 231.981 418.383 234.276 420.087 237.211C421.838 240.146 422.714 243.483 422.714 247.222C422.714 250.961 421.838 254.322 420.087 257.304C418.383 260.239 415.992 262.534 412.916 264.191C409.839 265.848 406.36 266.676 402.479 266.676ZM402.479 259.079C405.745 259.079 408.443 257.99 410.573 255.813C412.703 253.636 413.768 250.772 413.768 247.222C413.768 243.672 412.703 240.808 410.573 238.631C408.443 236.454 405.745 235.365 402.479 235.365C399.213 235.365 396.515 236.454 394.385 238.631C392.302 240.808 391.261 243.672 391.261 247.222C391.261 250.772 392.302 253.636 394.385 255.813C396.515 257.99 399.213 259.079 402.479 259.079Z" fill="#181818"/>
<path d="M447.684 227.839C453.269 227.839 457.529 229.188 460.464 231.886C463.446 234.537 464.937 238.56 464.937 243.956V266.179H456.559V261.564C455.47 263.221 453.908 264.499 451.873 265.398C449.885 266.25 447.471 266.676 444.631 266.676C441.791 266.676 439.306 266.203 437.176 265.256C435.046 264.262 433.389 262.913 432.206 261.209C431.07 259.458 430.502 257.493 430.502 255.316C430.502 251.908 431.756 249.186 434.265 247.151C436.821 245.068 440.821 244.027 446.264 244.027H456.062V243.459C456.062 240.808 455.257 238.773 453.648 237.353C452.086 235.933 449.743 235.223 446.619 235.223C444.489 235.223 442.383 235.554 440.3 236.217C438.265 236.88 436.537 237.803 435.117 238.986L431.638 232.525C433.626 231.01 436.016 229.851 438.809 229.046C441.602 228.241 444.56 227.839 447.684 227.839ZM446.477 260.215C448.702 260.215 450.666 259.718 452.37 258.724C454.121 257.683 455.352 256.215 456.062 254.322V249.92H446.903C441.791 249.92 439.235 251.6 439.235 254.961C439.235 256.57 439.874 257.848 441.152 258.795C442.43 259.742 444.205 260.215 446.477 260.215Z" fill="#181818"/>
<path d="M487.261 233.803C489.817 229.827 494.314 227.839 500.751 227.839V236.288C499.994 236.146 499.307 236.075 498.692 236.075C495.237 236.075 492.539 237.093 490.598 239.128C488.657 241.116 487.687 244.003 487.687 247.79V266.179H478.812V228.265H487.261V233.803Z" fill="#181818"/>
<path d="M547.551 213.497V266.179H539.031V261.28C537.564 263.079 535.742 264.428 533.564 265.327C531.434 266.226 529.068 266.676 526.464 266.676C522.82 266.676 519.53 265.871 516.595 264.262C513.708 262.653 511.436 260.381 509.779 257.446C508.123 254.464 507.294 251.056 507.294 247.222C507.294 243.388 508.123 240.004 509.779 237.069C511.436 234.134 513.708 231.862 516.595 230.253C519.53 228.644 522.82 227.839 526.464 227.839C528.973 227.839 531.269 228.265 533.351 229.117C535.434 229.969 537.209 231.247 538.676 232.951V213.497H547.551ZM527.529 259.079C529.659 259.079 531.576 258.606 533.28 257.659C534.984 256.665 536.333 255.269 537.327 253.47C538.321 251.671 538.818 249.589 538.818 247.222C538.818 244.855 538.321 242.773 537.327 240.974C536.333 239.175 534.984 237.803 533.28 236.856C531.576 235.862 529.659 235.365 527.529 235.365C525.399 235.365 523.482 235.862 521.778 236.856C520.074 237.803 518.725 239.175 517.731 240.974C516.737 242.773 516.24 244.855 516.24 247.222C516.24 249.589 516.737 251.671 517.731 253.47C518.725 255.269 520.074 256.665 521.778 257.659C523.482 258.606 525.399 259.079 527.529 259.079Z" fill="#181818"/>
<path d="M604.769 227.839C608.461 227.839 611.751 228.644 614.638 230.253C617.573 231.862 619.869 234.134 621.525 237.069C623.182 240.004 624.01 243.388 624.01 247.222C624.01 251.056 623.182 254.464 621.525 257.446C619.869 260.381 617.573 262.653 614.638 264.262C611.751 265.871 608.461 266.676 604.769 266.676C602.166 266.676 599.776 266.226 597.598 265.327C595.468 264.428 593.67 263.079 592.202 261.28V266.179H583.753V213.497H592.628V232.88C594.143 231.223 595.918 229.969 597.953 229.117C600.036 228.265 602.308 227.839 604.769 227.839ZM603.775 259.079C607.041 259.079 609.716 257.99 611.798 255.813C613.928 253.636 614.993 250.772 614.993 247.222C614.993 243.672 613.928 240.808 611.798 238.631C609.716 236.454 607.041 235.365 603.775 235.365C601.645 235.365 599.728 235.862 598.024 236.856C596.32 237.803 594.971 239.175 593.977 240.974C592.983 242.773 592.486 244.855 592.486 247.222C592.486 249.589 592.983 251.671 593.977 253.47C594.971 255.269 596.32 256.665 598.024 257.659C599.728 258.606 601.645 259.079 603.775 259.079Z" fill="#181818"/>
<path d="M648.911 227.839C654.496 227.839 658.756 229.188 661.691 231.886C664.673 234.537 666.164 238.56 666.164 243.956V266.179H657.786V261.564C656.697 263.221 655.135 264.499 653.1 265.398C651.112 266.25 648.698 266.676 645.858 266.676C643.018 266.676 640.533 266.203 638.403 265.256C636.273 264.262 634.616 262.913 633.433 261.209C632.297 259.458 631.729 257.493 631.729 255.316C631.729 251.908 632.983 249.186 635.492 247.151C638.048 245.068 642.048 244.027 647.491 244.027H657.289V243.459C657.289 240.808 656.484 238.773 654.875 237.353C653.313 235.933 650.97 235.223 647.846 235.223C645.716 235.223 643.61 235.554 641.527 236.217C639.492 236.88 637.764 237.803 636.344 238.986L632.865 232.525C634.853 231.01 637.243 229.851 640.036 229.046C642.829 228.241 645.787 227.839 648.911 227.839ZM647.704 260.215C649.929 260.215 651.893 259.718 653.597 258.724C655.348 257.683 656.579 256.215 657.289 254.322V249.92H648.13C643.018 249.92 640.462 251.6 640.462 254.961C640.462 256.57 641.101 257.848 642.379 258.795C643.657 259.742 645.432 260.215 647.704 260.215Z" fill="#181818"/>
<path d="M718.016 228.265V260.428C718.016 273.776 711.2 280.45 697.568 280.45C693.923 280.45 690.468 279.977 687.202 279.03C683.936 278.131 681.238 276.805 679.108 275.054L683.084 268.38C684.74 269.753 686.823 270.841 689.332 271.646C691.888 272.498 694.467 272.924 697.071 272.924C701.236 272.924 704.289 271.977 706.23 270.084C708.17 268.191 709.141 265.303 709.141 261.422V259.434C707.626 261.091 705.78 262.345 703.603 263.197C701.425 264.049 699.035 264.475 696.432 264.475C692.834 264.475 689.568 263.718 686.634 262.203C683.746 260.641 681.451 258.464 679.747 255.671C678.09 252.878 677.262 249.683 677.262 246.086C677.262 242.489 678.09 239.317 679.747 236.572C681.451 233.779 683.746 231.626 686.634 230.111C689.568 228.596 692.834 227.839 696.432 227.839C699.177 227.839 701.662 228.289 703.887 229.188C706.159 230.087 708.052 231.46 709.567 233.306V228.265H718.016ZM697.781 256.949C701.141 256.949 703.887 255.955 706.017 253.967C708.194 251.932 709.283 249.305 709.283 246.086C709.283 242.915 708.194 240.335 706.017 238.347C703.887 236.359 701.141 235.365 697.781 235.365C694.373 235.365 691.58 236.359 689.403 238.347C687.273 240.335 686.208 242.915 686.208 246.086C686.208 249.305 687.273 251.932 689.403 253.967C691.58 255.955 694.373 256.949 697.781 256.949Z" fill="#181818"/>
</svg>
